HIERARCHY
ROOT newVegas:Hips
{
	OFFSET 0.000000 96.479958 0.000000
	CHANNELS 6 Xposition Yposition Zposition Xrotation Yrotation Zrotation
	JOINT newVegas:Pelvis
	{
		OFFSET 0.000000 0.000000 0.000000
		CHANNELS 3 Xrotation Yrotation Zrotation
		JOINT newVegas:LeftUpLeg
		{
			OFFSET 18.735201 -5.666702 -4.541200
			CHANNELS 3 Xrotation Yrotation Zrotation
			JOINT newVegas:LeftLeg
			{
				OFFSET -0.021200 -31.938179 0.493100
				CHANNELS 3 Xrotation Yrotation Zrotation
				JOINT newVegas:LeftFoot
				{
					OFFSET 0.021200 -31.938179 -4.336299
					CHANNELS 3 Xrotation Yrotation Zrotation
					JOINT newVegas:LeftToeBase
					{
						OFFSET 0.943001 -26.722000 15.023500
						CHANNELS 3 Xrotation Yrotation Zrotation
						End Site
						{
							OFFSET 0.000000 30.670183 0.000000
						}
					}
				}
				JOINT newVegas:Left_PantLeg
				{
					OFFSET 0.663870 -9.044666 -1.108900
					CHANNELS 3 Xrotation Yrotation Zrotation
					End Site
					{
						OFFSET 1.415995 20.635357 0.000000
					}
				}
			}
		}
		JOINT newVegas:RightUpLeg
		{
			OFFSET -18.735201 -5.666702 -4.541200
			CHANNELS 3 Xrotation Yrotation Zrotation
			JOINT newVegas:RightLeg
			{
				OFFSET 0.018946 -31.938133 0.493100
				CHANNELS 3 Xrotation Yrotation Zrotation
				JOINT newVegas:RightFoot
				{
					OFFSET -0.018946 -31.938126 -4.336299
					CHANNELS 3 Xrotation Yrotation Zrotation
					JOINT newVegas:RightToeBase
					{
						OFFSET -0.943001 -26.722004 15.023500
						CHANNELS 3 Xrotation Yrotation Zrotation
						End Site
						{
							OFFSET 0.000000 30.670187 0.000000
						}
					}
				}
				JOINT newVegas:Right_PantLeg
				{
					OFFSET -0.661674 -9.044716 -1.108900
					CHANNELS 3 Xrotation Yrotation Zrotation
					End Site
					{
						OFFSET -1.415958 20.635269 0.000000
					}
				}
			}
		}
	}
	JOINT newVegas:Spine
	{
		OFFSET 0.000000 10.199997 -0.299500
		CHANNELS 3 Xrotation Yrotation Zrotation
		JOINT newVegas:Spine1
		{
			OFFSET 0.000000 11.900002 -1.516600
			CHANNELS 3 Xrotation Yrotation Zrotation
			JOINT newVegas:Spine2
			{
				OFFSET 0.000000 13.600006 -2.842500
				CHANNELS 3 Xrotation Yrotation Zrotation
				JOINT newVegas:Neck
				{
					OFFSET 0.000000 9.624100 -2.890100
					CHANNELS 3 Xrotation Yrotation Zrotation
					JOINT newVegas:Head
					{
						OFFSET 0.000000 14.068802 -1.351900
						CHANNELS 3 Xrotation Yrotation Zrotation
						JOINT newVegas:Hair_Back
						{
							OFFSET 0.000000 3.231903 -17.524799
							CHANNELS 3 Xrotation Yrotation Zrotation
							End Site
							{
								OFFSET 0.000000 19.849884 0.000000
							}
						}
						JOINT newVegas:Hair_Front
						{
							OFFSET 0.000000 31.260406 4.573800
							CHANNELS 3 Xrotation Yrotation Zrotation
							JOINT newVegas:Hair_Front1
							{
								OFFSET 0.000000 2.284103 11.993300
								CHANNELS 3 Xrotation Yrotation Zrotation
								JOINT newVegas:Hair_Front2
								{
									OFFSET 0.000000 2.284103 11.993300
									CHANNELS 3 Xrotation Yrotation Zrotation
									End Site
									{
										OFFSET 0.000000 12.208862 0.000000
									}
								}
							}
						}
						JOINT newVegas:Jowel
						{
							OFFSET 0.000000 -7.458206 6.864100
							CHANNELS 3 Xrotation Yrotation Zrotation
							End Site
							{
								OFFSET 0.000000 19.849884 0.000000
							}
						}
					}
				}
				JOINT newVegas:LeftShoulder
				{
					OFFSET 15.263000 10.923401 -0.547700
					CHANNELS 3 Xrotation Yrotation Zrotation
					JOINT newVegas:LeftArm
					{
						OFFSET 25.438599 -2.830597 -13.032500
						CHANNELS 3 Xrotation Yrotation Zrotation
						JOINT newVegas:LeftForeArm
						{
							OFFSET 29.960503 0.000000 0.000000
							CHANNELS 3 Xrotation Yrotation Zrotation
							JOINT newVegas:LeftHand
							{
								OFFSET 27.849251 0.000000 0.000000
								CHANNELS 3 Xrotation Yrotation Zrotation
								JOINT newVegas:LeftHandThumb1
								{
									OFFSET 4.487587 -3.305161 6.305391
									CHANNELS 3 Xrotation Yrotation Zrotation
									JOINT newVegas:LeftHandThumb2
									{
										OFFSET 5.480453 -3.164139 3.164143
										CHANNELS 3 Xrotation Yrotation Zrotation
										JOINT newVegas:LeftHandThumb3
										{
											OFFSET 5.159721 -2.978973 2.978967
											CHANNELS 3 Xrotation Yrotation Zrotation
											End Site
											{
												OFFSET 2.494507 5.926697 1.738678
											}
										}
									}
								}
								JOINT newVegas:LeftHandIndex1
								{
									OFFSET 18.578728 -0.527832 5.208049
									CHANNELS 3 Xrotation Yrotation Zrotation
									JOINT newVegas:LeftHandIndex2
									{
										OFFSET 3.192009 0.000000 0.000000
										CHANNELS 3 Xrotation Yrotation Zrotation
										JOINT newVegas:LeftHandIndex3
										{
											OFFSET 3.835129 0.000000 0.000000
											CHANNELS 3 Xrotation Yrotation Zrotation
											End Site
											{
												OFFSET -0.034599 3.816971 0.371180
											}
										}
									}
								}
								JOINT newVegas:LeftHandMiddle1
								{
									OFFSET 18.476105 0.000000 0.000000
									CHANNELS 3 Xrotation Yrotation Zrotation
									JOINT newVegas:LeftHandMiddle2
									{
										OFFSET 3.324875 0.000000 0.000000
										CHANNELS 3 Xrotation Yrotation Zrotation
										JOINT newVegas:LeftHandMiddle3
										{
											OFFSET 4.596550 0.000000 0.000000
											CHANNELS 3 Xrotation Yrotation Zrotation
											End Site
											{
												OFFSET 0.057701 4.578827 0.399218
											}
										}
									}
								}
								JOINT newVegas:LeftHandRing1
								{
									OFFSET 17.732719 0.121887 -4.201567
									CHANNELS 3 Xrotation Yrotation Zrotation
									JOINT newVegas:LeftHandRing2
									{
										OFFSET 2.733170 0.000000 0.000000
										CHANNELS 3 Xrotation Yrotation Zrotation
										JOINT newVegas:LeftHandRing3
										{
											OFFSET 3.178268 0.000000 0.000000
											CHANNELS 3 Xrotation Yrotation Zrotation
											End Site
											{
												OFFSET 0.119102 3.170624 0.185394
											}
										}
									}
								}
								JOINT newVegas:LeftHandPinky1
								{
									OFFSET 15.989624 -0.606689 -7.535461
									CHANNELS 3 Xrotation Yrotation Zrotation
									JOINT newVegas:LeftHandPinky2
									{
										OFFSET 2.538986 0.000000 0.000000
										CHANNELS 3 Xrotation Yrotation Zrotation
										JOINT newVegas:LeftHandPinky3
										{
											OFFSET 2.593102 0.000000 0.000000
											CHANNELS 3 Xrotation Yrotation Zrotation
											End Site
											{
												OFFSET -0.150902 2.584198 0.152708
											}
										}
									}
								}
							}
							JOINT newVegas:Left_Sleeve
							{
								OFFSET 0.267448 -0.649796 0.577675
								CHANNELS 3 Xrotation Yrotation Zrotation
								End Site
								{
									OFFSET 0.000000 15.991241 0.000000
								}
							}
							JOINT newVegas:Left_CapeC
							{
								OFFSET 15.715958 -8.608795 -6.935905
								CHANNELS 3 Xrotation Yrotation Zrotation
								JOINT newVegas:Left_CapeC1
								{
									OFFSET 0.000000 -8.688499 0.000000
									CHANNELS 3 Xrotation Yrotation Zrotation
									End Site
									{
										OFFSET 0.000000 8.688499 0.000000
									}
								}
							}
						}
						JOINT newVegas:Left_CapeB
						{
							OFFSET 26.118385 -8.608795 -7.079235
							CHANNELS 3 Xrotation Yrotation Zrotation
							JOINT newVegas:Left_CapeB1
							{
								OFFSET 0.000000 -8.688499 0.000000
								CHANNELS 3 Xrotation Yrotation Zrotation
								End Site
								{
									OFFSET 0.000000 8.688499 0.000000
								}
							}
						}
						JOINT newVegas:Left_CapeA
						{
							OFFSET 5.115639 -8.608795 -10.395809
							CHANNELS 3 Xrotation Yrotation Zrotation
							JOINT newVegas:Left_CapeA1
							{
								OFFSET 0.000000 -8.688499 0.000000
								CHANNELS 3 Xrotation Yrotation Zrotation
								End Site
								{
									OFFSET 0.000000 8.688499 0.000000
								}
							}
						}
					}
				}
				JOINT newVegas:RightShoulder
				{
					OFFSET -15.263000 10.923401 -0.547700
					CHANNELS 3 Xrotation Yrotation Zrotation
					JOINT newVegas:RightArm
					{
						OFFSET -25.438599 -2.830597 -13.032500
						CHANNELS 3 Xrotation Yrotation Zrotation
						JOINT newVegas:RightForeArm
						{
							OFFSET -29.960503 0.000000 0.000000
							CHANNELS 3 Xrotation Yrotation Zrotation
							JOINT newVegas:RightHand
							{
								OFFSET -27.849251 0.000000 0.000000
								CHANNELS 3 Xrotation Yrotation Zrotation
								JOINT newVegas:RightHandThumb1
								{
									OFFSET -4.487587 -3.305161 6.305391
									CHANNELS 3 Xrotation Yrotation Zrotation
									JOINT newVegas:RightHandThumb2
									{
										OFFSET -5.480453 -3.164139 3.164143
										CHANNELS 3 Xrotation Yrotation Zrotation
										JOINT newVegas:RightHandThumb3
										{
											OFFSET -5.159721 -2.978973 2.978967
											CHANNELS 3 Xrotation Yrotation Zrotation
											End Site
											{
												OFFSET -2.494507 5.926697 1.738678
											}
										}
									}
								}
								JOINT newVegas:RightHandIndex1
								{
									OFFSET -18.578728 -0.527832 5.208049
									CHANNELS 3 Xrotation Yrotation Zrotation
									JOINT newVegas:RightHandIndex2
									{
										OFFSET -3.192009 0.000000 0.000000
										CHANNELS 3 Xrotation Yrotation Zrotation
										JOINT newVegas:RightHandIndex3
										{
											OFFSET -3.835129 0.000000 0.000000
											CHANNELS 3 Xrotation Yrotation Zrotation
											End Site
											{
												OFFSET 0.034599 3.816971 0.371180
											}
										}
									}
								}
								JOINT newVegas:RightHandMiddle1
								{
									OFFSET -18.476105 0.000000 0.000000
									CHANNELS 3 Xrotation Yrotation Zrotation
									JOINT newVegas:RightHandMiddle2
									{
										OFFSET -3.324875 0.000000 0.000000
										CHANNELS 3 Xrotation Yrotation Zrotation
										JOINT newVegas:RightHandMiddle3
										{
											OFFSET -4.596550 0.000000 0.000000
											CHANNELS 3 Xrotation Yrotation Zrotation
											End Site
											{
												OFFSET -0.057701 4.578827 0.399218
											}
										}
									}
								}
								JOINT newVegas:RightHandRing1
								{
									OFFSET -17.732719 0.121887 -4.201567
									CHANNELS 3 Xrotation Yrotation Zrotation
									JOINT newVegas:RightHandRing2
									{
										OFFSET -2.733170 0.000000 0.000000
										CHANNELS 3 Xrotation Yrotation Zrotation
										JOINT newVegas:RightHandRing3
										{
											OFFSET -3.178268 0.000000 0.000000
											CHANNELS 3 Xrotation Yrotation Zrotation
											End Site
											{
												OFFSET -0.119102 3.170624 0.185394
											}
										}
									}
								}
								JOINT newVegas:RightHandPinky1
								{
									OFFSET -15.989624 -0.606689 -7.535461
									CHANNELS 3 Xrotation Yrotation Zrotation
									JOINT newVegas:RightHandPinky2
									{
										OFFSET -2.538986 0.000000 0.000000
										CHANNELS 3 Xrotation Yrotation Zrotation
										JOINT newVegas:RightHandPinky3
										{
											OFFSET -2.593102 0.000000 0.000000
											CHANNELS 3 Xrotation Yrotation Zrotation
											End Site
											{
												OFFSET 0.150902 2.584198 0.152708
											}
										}
									}
								}
							}
							JOINT newVegas:Right_CapeC
							{
								OFFSET -15.715958 -8.608795 -6.935905
								CHANNELS 3 Xrotation Yrotation Zrotation
								JOINT newVegas:Right_CapeC1
								{
									OFFSET 0.000000 -8.688499 0.000000
									CHANNELS 3 Xrotation Yrotation Zrotation
									End Site
									{
										OFFSET 0.000000 8.688499 0.000000
									}
								}
							}
							JOINT newVegas:Right_Sleeve
							{
								OFFSET -0.267448 -0.649994 0.577675
								CHANNELS 3 Xrotation Yrotation Zrotation
								End Site
								{
									OFFSET 0.000000 15.991302 0.000000
								}
							}
						}
						JOINT newVegas:Right_CapeA
						{
							OFFSET -5.115540 -8.608795 -10.395824
							CHANNELS 3 Xrotation Yrotation Zrotation
							JOINT newVegas:Right_CapeA1
							{
								OFFSET 0.000000 -8.688499 0.000000
								CHANNELS 3 Xrotation Yrotation Zrotation
								End Site
								{
									OFFSET 0.000000 8.688499 0.000000
								}
							}
						}
						JOINT newVegas:Right_CapeB
						{
							OFFSET -26.118187 -8.608795 -7.079266
							CHANNELS 3 Xrotation Yrotation Zrotation
							JOINT newVegas:Right_CapeB1
							{
								OFFSET 0.000000 -8.688499 0.000000
								CHANNELS 3 Xrotation Yrotation Zrotation
								End Site
								{
									OFFSET 0.000000 8.688499 0.000000
								}
							}
						}
					}
				}
				JOINT newVegas:Left_Collar
				{
					OFFSET 18.625099 8.655502 8.828100
					CHANNELS 3 Xrotation Yrotation Zrotation
					JOINT newVegas:Left_Collar1
					{
						OFFSET 14.783401 10.540405 -1.259500
						CHANNELS 3 Xrotation Yrotation Zrotation
						End Site
						{
							OFFSET 0.000000 18.199875 0.000000
						}
					}
				}
				JOINT newVegas:Collar_Back
				{
					OFFSET 0.000000 15.630707 -20.132601
					CHANNELS 3 Xrotation Yrotation Zrotation
					End Site
					{
						OFFSET 0.000000 22.523010 0.000000
					}
				}
				JOINT newVegas:Left_Peck
				{
					OFFSET 17.239599 -5.132599 25.482599
					CHANNELS 3 Xrotation Yrotation Zrotation
					End Site
					{
						OFFSET 0.000000 22.523010 0.000000
					}
				}
				JOINT newVegas:Right_Peck
				{
					OFFSET -17.239599 -5.132202 25.482599
					CHANNELS 3 Xrotation Yrotation Zrotation
					End Site
					{
						OFFSET 0.000000 22.523010 0.000000
					}
				}
				JOINT newVegas:Right_Collar
				{
					OFFSET -18.625099 8.655792 8.828100
					CHANNELS 3 Xrotation Yrotation Zrotation
					JOINT newVegas:Right_Collar1
					{
						OFFSET -14.783401 10.539993 -1.259500
						CHANNELS 3 Xrotation Yrotation Zrotation
						End Site
						{
							OFFSET 0.000000 18.199631 0.000000
						}
					}
				}
			}
		}
		JOINT newVegas:Belly
		{
			OFFSET 0.000000 -6.540398 9.014299
			CHANNELS 3 Xrotation Yrotation Zrotation
			End Site
			{
				OFFSET 0.000000 11.566666 0.000000
			}
		}
	}
	JOINT newVegas:ElvisFacialAnim_Joint
	{
		OFFSET 1.000000 -95.330101 -8.825800
		CHANNELS 3 Xrotation Yrotation Zrotation
		End Site
		{
			OFFSET 0.000000 35.315800 0.000000
		}
	}
}
MOTION
Frames: 4
Frame Time: 0.033333
-1.515970 64.877106 7.922680 -0.970993 -27.232348 -4.670707 0.000000 0.000001 0.000001 -88.662440 -3.948647 16.468011 108.585289 -8.354533 0.270846 35.848658 -3.256630 -12.675419 0.000000 0.000000 -0.000001 -0.000000 -0.000001 -0.000000 -80.453734 -5.056999 16.705941 99.747202 5.740013 -0.845192 -15.581349 -2.435949 -4.075634 -0.000000 -0.000000 -0.000000 0.000002 0.000000 -0.000001 34.149167 -0.488333 -5.052847 6.717412 -1.684393 7.329721 6.991107 -0.628918 7.465413 -1.928473 1.190583 2.053383 -1.928502 1.190588 2.053376 -0.000003 0.000002 -0.000001 -1.928425 1.190598 2.053374 -1.928456 1.190589 2.053372 -0.000000 -0.000001 -0.000000 -0.000003 0.000002 -0.000001 15.647596 -31.732297 6.640953 -75.305301 -0.275822 -36.103697 -83.934774 15.703095 -98.542609 -33.298958 -10.630843 17.266503 0.699137 9.503375 -2.418103 5.975198 12.647544 1.348304 0.000000 0.000000 -0.000004 9.479720 -1.289768 -20.785541 0.709469 2.796315 -28.467091 -0.000001 -0.000001 -0.000003 10.058157 -1.800620 -20.644735 1.774280 4.200553 -45.782095 0.000007 -0.000001 0.000002 1.254225 -0.073758 -17.945794 3.754114 5.463586 -68.965274 -0.000002 0.000001 0.000002 -7.938284 1.609063 -6.495701 2.210595 4.583674 -51.475188 0.000003 -0.000001 -0.000004 0.000002 0.000000 -0.000001 0.000002 0.000000 -0.000001 0.000001 0.000001 0.000000 -0.000000 0.000000 -0.000000 0.000000 -0.000001 0.000000 -0.000000 0.000000 -0.000000 -0.000001 0.000001 -0.000000 17.419866 27.601143 -6.009828 -45.505579 11.172204 48.801927 35.185272 127.701711 -27.800507 -5.523515 -4.171296 -5.696337 13.942549 -4.273656 -5.300346 7.113236 -20.767491 -2.619404 0.000000 -0.000003 0.000001 0.357759 -5.832677 5.175932 0.094366 -0.933576 11.539805 -0.000001 0.000001 -0.000002 3.764102 -12.080480 1.143830 5.714254 -4.535781 103.133514 -0.000000 -0.000000 -0.000000 -12.155586 -12.623959 9.228397 6.566839 -4.248381 114.232264 0.000003 0.000001 -0.000000 -17.635748 -10.496810 3.325397 4.993648 -4.645005 94.147942 0.000001 -0.000005 0.000000 0.000000 -0.000001 -0.000001 -0.000000 -0.000003 -0.000001 -0.000000 -0.000001 -0.000001 -0.000000 0.000001 -0.000002 -0.000000 0.000000 -0.000000 -0.000000 0.000001 -0.000002 -0.000000 -0.000000 -0.000000 -0.000000 -0.000002 0.000001 -0.000000 -0.000002 0.000001 -0.000000 -0.000002 0.000001 -0.000000 -0.000002 0.000001 -0.000000 -0.000002 0.000001 -0.000000 -0.000002 0.000001 -0.000000 -0.000002 0.000001 0.000001 -0.000002 0.000000 0.000000 0.000001 0.000001 
-1.639660 64.365379 0.420690 -0.192456 -26.033734 -4.842351 -0.000000 -0.000000 0.000000 -80.547069 1.890497 15.639675 112.324845 -6.900492 0.250238 26.808093 -3.659623 -9.339537 0.000000 0.000001 0.000000 -0.000001 0.000000 -0.000000 -85.184965 -8.240213 17.695502 91.434335 3.912454 -1.243340 -2.663827 -3.202523 -3.672294 -0.000000 0.000000 0.000000 -0.000000 -0.000001 -0.000001 33.226931 -1.051903 -4.124395 7.078706 -1.617449 7.637271 7.394705 -0.847325 7.710381 -1.931071 1.144753 2.049546 -1.931049 1.144766 2.049532 -0.000003 0.000001 -0.000001 -1.930985 1.144756 2.049550 -1.931132 1.144768 2.049533 0.000001 0.000000 0.000001 -0.000003 0.000001 -0.000001 15.529702 -32.249230 6.745041 -74.690168 0.168009 -35.933417 -83.238730 20.125584 -99.633124 -28.409499 -11.000732 17.113922 0.699133 9.503376 -2.418103 5.975200 12.647542 1.348299 0.000001 0.000001 -0.000001 9.479719 -1.289769 -20.785541 0.709469 2.796314 -28.467088 -0.000001 0.000003 -0.000000 10.058153 -1.800618 -20.644739 1.774277 4.200554 -45.782099 0.000002 -0.000002 0.000001 1.254222 -0.073756 -17.945794 3.754118 5.463583 -68.965274 0.000001 -0.000001 0.000003 -7.938284 1.609063 -6.495701 2.210588 4.583676 -51.475191 -0.000002 -0.000003 -0.000001 -0.000000 0.000002 -0.000000 -0.000000 0.000002 -0.000000 0.000000 0.000002 0.000001 -0.000002 -0.000002 -0.000000 -0.000002 -0.000003 0.000000 -0.000002 -0.000002 -0.000000 -0.000003 -0.000003 -0.000001 17.470058 26.689099 -5.724389 -45.654460 11.533784 49.225245 36.678396 128.014206 -29.054925 -4.388000 -3.654703 -4.768357 13.942548 -4.273649 -5.300349 7.113239 -20.767498 -2.619401 0.000000 0.000001 0.000001 0.357759 -5.832676 5.175932 0.094368 -0.933577 11.539810 -0.000001 0.000001 0.000001 3.764101 -12.080478 1.143830 5.714252 -4.535780 103.133521 0.000000 -0.000000 0.000002 -12.155587 -12.623959 9.228396 6.566835 -4.248382 114.232257 -0.000002 -0.000001 0.000003 -17.635747 -10.496808 3.325400 4.993644 -4.645009 94.147942 0.000000 -0.000000 -0.000001 -0.000000 0.000004 0.000001 0.000000 0.000004 0.000002 -0.000000 0.000004 0.000001 -0.000000 0.000000 0.000000 -0.000000 0.000000 0.000002 -0.000000 0.000000 0.000000 -0.000000 0.000000 0.000002 0.000001 0.000001 -0.000000 0.000001 0.000001 -0.000000 0.000001 0.000001 -0.000000 0.000001 0.000001 -0.000000 0.000001 0.000001 -0.000000 0.000001 0.000001 -0.000000 0.000001 0.000001 -0.000000 -0.000000 0.000001 -0.000000 -0.000000 -0.000000 0.000000 
-1.851230 63.841164 -6.272625 0.629259 -24.680352 -5.052112 -0.000000 0.000002 -0.000000 -69.519769 11.265642 13.875326 114.124914 -6.065320 0.353661 16.069883 -3.109873 -2.347830 -0.000001 -0.000001 -0.000000 -0.000005 0.000001 0.000002 -87.368153 -10.057291 18.277434 81.910040 2.650645 -1.588337 8.534097 -3.803111 -3.484822 -0.000000 -0.000000 0.000000 0.000001 0.000001 -0.000001 32.363905 -1.540080 -2.993588 7.346189 -1.599034 7.815636 7.646337 -0.956882 7.851881 -1.923148 1.108642 2.052480 -1.923165 1.108641 2.052484 -0.000001 0.000001 -0.000003 -1.923015 1.108633 2.052478 -1.923217 1.108679 2.052479 0.000001 0.000001 -0.000000 -0.000001 0.000001 -0.000001 15.414724 -32.836428 6.868673 -74.063026 0.378698 -35.723245 -83.075393 19.662400 -100.228948 -28.684824 -11.467304 16.713198 0.699135 9.503378 -2.418105 5.975197 12.647547 1.348299 0.000001 -0.000002 0.000002 9.479717 -1.289769 -20.785541 0.709469 2.796315 -28.467088 -0.000000 -0.000002 -0.000001 10.058155 -1.800621 -20.644735 1.774277 4.200554 -45.782099 0.000003 -0.000003 0.000000 1.254224 -0.073762 -17.945794 3.754118 5.463593 -68.965274 -0.000001 0.000001 0.000003 -7.938281 1.609060 -6.495701 2.210591 4.583674 -51.475188 0.000003 0.000000 -0.000004 -0.000001 -0.000001 -0.000002 -0.000001 -0.000001 -0.000002 -0.000001 -0.000000 -0.000001 -0.000000 0.000001 -0.000001 -0.000000 0.000000 -0.000001 -0.000000 0.000001 -0.000001 -0.000001 0.000002 -0.000002 17.538835 25.680628 -5.410603 -45.647131 11.618777 49.685600 34.285699 127.213475 -27.173030 -5.830178 -3.115733 -3.956110 13.942547 -4.273648 -5.300346 7.113232 -20.767491 -2.619404 -0.000000 -0.000001 0.000001 0.357759 -5.832674 5.175932 0.094369 -0.933577 11.539807 -0.000000 -0.000001 -0.000000 3.764101 -12.080476 1.143831 5.714253 -4.535782 103.133514 0.000000 -0.000000 0.000001 -12.155585 -12.623957 9.228398 6.566837 -4.248381 114.232257 -0.000001 -0.000001 -0.000003 -17.635750 -10.496810 3.325400 4.993645 -4.645005 94.147942 0.000000 -0.000000 0.000000 -0.000001 -0.000000 0.000001 0.000000 -0.000000 0.000001 -0.000001 -0.000000 0.000001 -0.000000 0.000002 -0.000000 -0.000000 0.000002 0.000001 -0.000000 0.000002 -0.000000 -0.000000 0.000002 0.000001 -0.000000 0.000000 -0.000000 -0.000000 0.000000 -0.000000 -0.000000 0.000000 -0.000000 -0.000000 0.000000 -0.000000 -0.000000 0.000000 -0.000000 -0.000000 0.000000 -0.000000 -0.000000 0.000000 -0.000000 0.000001 0.000001 -0.000000 -0.000000 0.000002 -0.000000 
-1.997602 63.559174 -12.300611 1.473441 -23.290288 -5.384197 -0.000000 0.000002 -0.000000 -54.747207 20.630339 10.334638 112.357609 -4.696955 0.596369 3.125946 -4.047127 7.057243 0.000001 -0.000000 -0.000000 -0.000002 0.000001 0.000000 -87.331010 -10.799194 18.603577 71.006933 2.006099 -1.842668 18.606682 -4.333186 -3.355404 0.000000 -0.000001 0.000000 0.000002 0.000000 -0.000000 31.601383 -2.043923 -1.731415 7.511469 -1.801352 7.980433 7.749050 -1.140239 8.023934 -1.913159 1.110650 2.053723 -1.913185 1.110653 2.053699 -0.000001 -0.000001 0.000001 -1.913129 1.110607 2.053722 -1.913115 1.110671 2.053705 -0.000000 0.000000 -0.000000 -0.000001 -0.000001 0.000001 15.301555 -33.416318 6.988468 -73.408988 0.935767 -35.318007 -82.814200 19.783522 -100.953912 -28.392202 -11.906780 16.487853 0.699135 9.503378 -2.418107 5.975199 12.647540 1.348303 0.000001 -0.000002 0.000000 9.479719 -1.289770 -20.785536 0.709468 2.796318 -28.467088 0.000001 0.000005 -0.000001 10.058155 -1.800618 -20.644737 1.774277 4.200560 -45.782095 0.000003 -0.000001 0.000000 1.254224 -0.073755 -17.945794 3.754116 5.463588 -68.965274 0.000001 -0.000001 0.000002 -7.938284 1.609062 -6.495699 2.210587 4.583673 -51.475191 0.000003 -0.000003 -0.000001 0.000001 -0.000000 -0.000002 0.000001 -0.000000 -0.000002 0.000001 -0.000000 -0.000001 0.000003 0.000000 -0.000000 0.000003 -0.000001 0.000000 0.000003 0.000000 -0.000000 0.000002 -0.000001 -0.000001 17.628390 24.645358 -5.091007 -45.761960 12.135119 50.303097 37.183290 127.776925 -29.596965 -3.890971 -2.550327 -3.150209 13.942548 -4.273651 -5.300344 7.113235 -20.767498 -2.619401 0.000001 -0.000002 -0.000001 0.357759 -5.832673 5.175932 0.094367 -0.933579 11.539807 0.000000 0.000001 -0.000000 3.764101 -12.080480 1.143830 5.714254 -4.535782 103.133514 0.000001 -0.000001 0.000001 -12.155589 -12.623959 9.228396 6.566835 -4.248382 114.232257 -0.000000 0.000004 0.000003 -17.635748 -10.496807 3.325397 4.993640 -4.645008 94.147942 -0.000000 -0.000003 -0.000002 -0.000000 0.000003 0.000001 -0.000000 0.000003 0.000001 -0.000000 0.000003 0.000000 -0.000000 0.000000 -0.000001 -0.000000 0.000000 -0.000001 -0.000000 0.000000 -0.000001 -0.000000 -0.000000 0.000000 0.000002 -0.000001 0.000000 0.000002 -0.000001 0.000000 0.000002 -0.000001 0.000000 0.000002 -0.000001 0.000000 0.000002 -0.000001 0.000000 0.000002 -0.000001 0.000000 0.000002 -0.000001 0.000000 0.000000 0.000001 -0.000000 -0.000000 0.000002 -0.000000 
